<svg width="20" height="20" viewBox="0 0 20 20" fill="none" xmlns="http://www.w3.org/2000/svg">
<path fill-rule="evenodd" clip-rule="evenodd" d="M11.1043 2.17713L12.9317 5.82788C13.1108 6.18628 13.4565 6.4348 13.8573 6.4923L17.9453 7.08074C18.9554 7.22656 19.3573 8.45067 18.6263 9.15206L15.6702 11.9926C15.3797 12.2719 15.2474 12.6734 15.3162 13.0678L16.0138 17.0779C16.1856 18.07 15.1298 18.8268 14.227 18.3575L10.5732 16.4628C10.215 16.2769 9.78602 16.2769 9.42679 16.4628L5.773 18.3575C4.87023 18.8268 3.81439 18.07 3.98724 17.0779L4.68385 13.0678C4.75257 12.6734 4.62033 12.2719 4.32982 11.9926L1.37368 9.15206C0.642715 8.45067 1.04464 7.22656 2.05466 7.08074L6.14265 6.4923C6.54354 6.4348 6.89028 6.18628 7.06937 5.82788L8.89574 2.17713C9.34765 1.27445 10.6523 1.27445 11.1043 2.17713Z" stroke="black" stroke-width="1.5" stroke-linecap="round" stroke-linejoin="round"/>
</svg>
