<?xml version="1.0" encoding="iso-8859-1"?>
<!-- Generator: Adobe Illustrator 19.0.0, SVG Export Plug-In . SVG Version: 6.00 Build 0)  -->
<svg version="1.1" id="Capa_1" xmlns="http://www.w3.org/2000/svg" xmlns:xlink="http://www.w3.org/1999/xlink" x="0px" y="0px"
	 viewBox="0 0 464.506 464.506" style="enable-background:new 0 0 464.506 464.506;" xml:space="preserve">
<g>
	<path style="fill:#00ACEA;" d="M425.768,139.345c18.449,2.715,31.203,19.871,28.489,38.32s-19.871,31.203-38.32,28.489
		c-18.448-2.715-31.203-19.87-28.489-38.319c2.713-18.448,19.867-31.204,38.315-28.491
		C425.764,139.344,425.766,139.345,425.768,139.345z"/>
	<path style="fill:#00ACEA;" d="M311.048,236.235c18.449,2.714,31.204,19.87,28.49,38.319c-2.714,18.449-19.87,31.204-38.319,28.49
		c-18.445-2.713-31.2-19.863-28.492-38.309C275.441,246.284,292.596,233.525,311.048,236.235z"/>
	<path style="fill:#00ACEA;" d="M174.688,170.705c18.449,2.71,31.208,19.862,28.498,38.311s-19.862,31.208-38.311,28.498
		s-31.208-19.862-28.498-38.311c0-0.003,0.001-0.005,0.001-0.008C139.091,180.75,156.242,167.995,174.688,170.705z"/>
	<path style="fill:#00ACEA;" d="M74.468,277.695c7.764,16.95,0.317,36.984-16.633,44.748s-36.984,0.317-44.748-16.633
		s-0.317-36.984,16.633-44.749c5.929-2.716,12.517-3.656,18.968-2.707C60.026,259.962,69.753,267.259,74.468,277.695z"/>
</g>
<path style="fill:#083863;" d="M427.218,129.455c-23.901-3.528-46.137,12.987-49.665,36.889
	c-1.647,11.156,1.078,22.516,7.605,31.711l-46.562,42.277c-6.8-7.566-16.034-12.513-26.1-13.982
	c-18.546-2.699-36.756,6.689-45.315,23.362l-53.7-43.335c1.266-24.136-17.275-44.728-41.41-45.993s-44.728,17.275-45.993,41.41
	c-0.147,2.809-0.023,5.626,0.37,8.411l-50.6,51.675c-6.673-7.214-15.666-11.625-25.701-13.625h-0.005
	c-23.873-3-46.15,13.167-49.657,37.044c-3.562,23.91,12.934,46.181,36.844,49.743s46.181-12.934,49.743-36.844
	c0.895-6.009,0.53-12.139-1.073-17.999l48.762-49.9c6.91,9.274,17.22,15.425,28.664,17.1c2.137,0.315,4.293,0.473,6.453,0.474
	c15.209-0.05,29.307-7.973,37.258-20.939l55.272,44.6c0.92,20.973,16.599,38.341,37.369,41.393
	c23.896,3.524,46.125-12.99,49.649-36.886c0.002-0.015,0.004-0.03,0.007-0.045c0.868-5.871,0.526-11.858-1.006-17.592l51.808-47.041
	c4.449,2.367,9.274,3.949,14.262,4.674c2.136,0.314,4.293,0.472,6.452,0.473c24.173-0.116,43.674-19.806,43.558-43.979
	C464.402,150.941,448.57,132.652,427.218,129.455L427.218,129.455z M67.295,295.221c-1.902,13.001-13.984,21.998-26.985,20.096
	s-21.998-13.984-20.096-26.985s13.984-21.998,26.985-20.096c7.99,1.169,14.841,6.311,18.196,13.656
	C67.315,286.054,67.975,290.688,67.295,295.221z M193.295,207.562c-1.906,12.986-13.979,21.967-26.965,20.061
	c-12.986-1.906-21.967-13.979-20.061-26.965c1.712-11.66,11.711-20.305,23.496-20.313c1.161,0,2.321,0.085,3.47,0.254
	c12.984,1.905,21.966,13.976,20.06,26.96C193.295,207.56,193.295,207.561,193.295,207.562z M329.644,273.102
	c-1.91,12.987-13.987,21.966-26.974,20.056c-12.987-1.91-21.966-13.987-20.056-26.974c1.91-12.987,13.987-21.966,26.974-20.056
	c0.002,0,0.005,0.001,0.007,0.001C322.571,248.056,331.539,260.121,329.644,273.102z M444.365,176.202
	c-1.906,12.988-13.979,21.971-26.967,20.066c-12.988-1.906-21.971-13.979-20.066-26.967c1.906-12.988,13.979-21.971,26.967-20.066
	c0.006,0.001,0.012,0.002,0.019,0.003C437.29,151.164,446.257,163.225,444.365,176.202z"/>
<g>
</g>
<g>
</g>
<g>
</g>
<g>
</g>
<g>
</g>
<g>
</g>
<g>
</g>
<g>
</g>
<g>
</g>
<g>
</g>
<g>
</g>
<g>
</g>
<g>
</g>
<g>
</g>
<g>
</g>
</svg>
