<svg id="Capa_1" enable-background="new 0 0 511.986 511.986" height="512" viewBox="0 0 511.986 511.986" width="512" xmlns="http://www.w3.org/2000/svg"><g><path d="m479.096 211.322 25.39-25.39-178.41-178.41-25.39 25.39 12.646 38.328-140.179 140.18-51.023-25.439-25.39 25.39 203.898 203.897 25.389-25.39-25.438-51.023 140.179-140.179z" fill="#ff5e79"/><path d="m155.495 202.616-33.365-16.635-25.39 25.39 203.897 203.897 25-25-170.142-170.143c-4.835-4.835-4.835-12.674 0-17.509z" fill="#fa3278"/><path d="m7.486 504.522 25.487-76.461 140.229-140.228 50.974 50.973-140.228 140.229z" fill="#eef7fe"/><path d="m99.973 411.061 98.229-98.229-24.999-25-140.23 140.229-25.487 76.461 56.25-18.75 11.635-34.904c4.999-14.999 13.422-28.627 24.602-39.807z" fill="#dbe8f7"/><path d="m509.79 180.629-50.33-50.33c-2.93-2.929-7.678-2.929-10.607 0s-2.929 7.678 0 10.606l45.027 45.027-16.819 16.82-32.253-10.644-124.908-124.907-10.643-32.252 16.819-16.82 99.656 99.657c2.93 2.929 7.678 2.929 10.607 0s2.929-7.678 0-10.606l-104.959-104.961c-3.536-2.929-7.072-2.929-10.607 0l-25.39 25.39c-2.003 2.003-2.706 4.964-1.818 7.654l11.201 33.943-52.723 52.723c-2.929 2.929-2.929 7.678 0 10.606 3.536 2.929 7.072 2.929 10.607 0l50.685-50.685 116.823 116.823-129.573 129.573-116.822-116.824 55.767-55.767c2.929-2.929 2.929-7.678 0-10.606s-7.677-2.93-10.607 0l-57.252 57.252-46.198-23.031c-2.888-1.439-6.369-.872-8.65 1.409l-25.39 25.39c-2.929 2.929-2.929 7.678 0 10.606l71.162 71.162-134.922 134.922c-.823.823-1.443 1.827-1.812 2.931l-25.49 76.46c-1.977 5.932 4.355 11.196 9.487 9.487l76.46-25.49c1.104-.369 2.108-.989 2.932-1.812l70.15-70.15c2.929-2.929 2.929-7.678 0-10.606-2.929-2.929-7.677-2.929-10.607 0l-68.898 68.898-60.549 20.186 20.186-60.549 133.67-133.67 40.364 40.364-41.652 41.652c-2.929 2.929-2.929 7.678 0 10.606 2.93 2.929 7.678 2.929 10.607 0l41.651-41.651 71.161 71.161c3.536 2.929 7.072 2.929 10.607 0l25.39-25.39c2.28-2.28 2.848-5.763 1.408-8.649l-23.031-46.198 133.096-133.096 33.943 11.202c2.69.888 5.651.184 7.654-1.819l25.39-25.39c2.928-2.929 2.928-7.678 0-10.607zm-192.885 207.768-16.269 16.269-193.294-193.294 16.269-16.269 45.104 22.485 125.705 125.706z"/></g></svg>